<?xml version="1.0" encoding="UTF-8"?>
<svg id="Layer_2" data-name="Layer 2" xmlns="http://www.w3.org/2000/svg" viewBox="0 0 848.28 249.9">
  <defs>
    <style>
      .cls-1 {
        fill: #fe9b05;
      }

      .cls-1, .cls-2, .cls-3, .cls-4, .cls-5, .cls-6, .cls-7, .cls-8, .cls-9, .cls-10, .cls-11, .cls-12 {
        stroke-width: 0px;
      }

      .cls-2 {
        fill: #fe9b07;
      }

      .cls-3 {
        fill: #171717;
      }

      .cls-4 {
        fill: #1a1a1a;
      }

      .cls-5 {
        fill: #151515;
      }

      .cls-6 {
        fill: #161616;
      }

      .cls-7 {
        fill: #fe9902;
      }

      .cls-8 {
        fill: #f6f6f6;
      }

      .cls-9 {
        fill: #fe9a04;
      }

      .cls-10 {
        fill: #fe9a05;
      }

      .cls-11 {
        fill: #f1f1f1;
      }

      .cls-12 {
        fill: #fe9b06;
      }
    </style>
  </defs>
  <g id="Layer_1-2" data-name="Layer 1">
    <g>
      <g>
        <path class="cls-9" d="M112.4,67.1c-3.26,17.56-5.91,34.73-9.85,51.59-1.58,6.75-4.44,15.33-13.33,15.25-8.81-.07-11.25-8.58-13.33-15.36-10.57-34.5-10.58-69.16.18-103.62C78.11,8.4,80.64.22,88.94,0c8.91-.23,11.91,8.34,13.49,15.07,4.02,17.1,6.71,34.52,9.97,52.02Z"/>
        <path class="cls-7" d="M89.43,167.66c8.46,8.21,17.56,16.06,25.49,24.95,15.56,17.42,12.2,42.55-6.48,52.98-14.39,8.03-33.63,4.57-43.8-7.88-11.4-13.95-11.94-32.75-.35-45.67,7.77-8.66,16.7-16.27,25.14-24.37Z"/>
        <path class="cls-1" d="M0,79.79c28.43-2.51,64.67,32.89,70.88,68.58-30.44-1.51-59.55-29.55-70.88-68.58Z"/>
        <path class="cls-10" d="M177.68,78.27c-4.56,38.35-43.66,69.2-69.4,69.48,2.45-26.79,29.74-62.87,69.4-69.48Z"/>
        <path class="cls-2" d="M36.07,178.03c-9.47-1.88-18.65-3.35-27.61-5.7-2.51-.66-4.34-3.9-6.48-5.96,2.07-2.09,3.78-5.24,6.27-6.11,18.23-6.32,36.66-6.35,54.87.1,2.45.87,5.15,3.85,5.67,6.29.3,1.43-3.19,4.83-5.48,5.44-8.94,2.39-18.08,4.01-27.25,5.94Z"/>
        <path class="cls-12" d="M142.96,178.17c-9.8-2.13-19.17-3.87-28.31-6.39-2.13-.59-4.59-3.73-4.87-5.96-.2-1.55,2.76-4.42,4.86-5.18,18.95-6.82,38.04-6.9,56.94.21,2.03.76,4.53,3.58,4.54,5.46,0,1.83-2.61,4.78-4.59,5.31-9.41,2.54-18.99,4.42-28.56,6.55Z"/>
      </g>
      <path class="cls-6" d="M437.13,196.89h-21.5c0-11.67.12-23.13-.07-34.59-.06-3.82.42-8.85-1.71-11.16-3.23-3.51-8.39-6.8-12.96-7.16-6.44-.5-10.64,4.3-10.73,11.16-.18,13.79-.05,27.59-.05,41.67h-22.46c0-13.29.2-26.4-.07-39.5-.19-9.33-5.49-14.63-13.56-13.84-8.1.79-11.79,5.68-11.75,13.73.08,12.88.02,25.75.02,39.27h-21.36c0-15.6-1.01-31.42.31-47.04,1.15-13.55,10.63-21.84,23.54-25.1,13.11-3.31,25.1-1.44,33.66,11.86,6.9-9.36,15.66-13.92,27.31-13.04,17.15,1.3,30.01,12.48,31.17,29.75.96,14.38.2,28.87.2,43.99Z"/>
      <path class="cls-6" d="M312.28,196.89h-23.85c-2.19-5.67-4.38-11.33-6.77-17.52-9.33,0-18.67-.34-27.96.24-2.31.14-5.15,2.81-6.48,5.06-2.08,3.55-3.08,7.73-4.69,12.03h-23.75c8.58-21.59,16.86-42.42,25.15-63.25,2.02-5.07,4.64-9.98,6.02-15.22,2.23-8.44,6.7-11.21,15.71-11.05,8.49.15,12.13,2.75,15.08,10.59,9.82,26.12,20.58,51.88,31.52,79.12ZM256.29,158.18h18.14c-2.93-8.35-5.64-16.06-8.93-25.44-3.35,9.26-6.14,16.97-9.21,25.44Z"/>
      <path class="cls-5" d="M528.08,196.86h-19.79c-1.14-2.84-2.31-5.74-2.98-7.41-7.17,2.78-14.24,7.56-21.44,7.75-7.46.19-16.06-2.53-22.35-6.7-13.53-8.96-18.09-27.1-12.78-43.15,5.2-15.71,19.29-24.51,38.69-24.16,17.32.31,30.34,9.57,34.74,25.23,1.38,4.91,1.72,10.13,2.31,15.23,1.25,10.79,2.35,21.6,3.61,33.22ZM502.35,161.35c.25-10.8-5.61-17.58-15.61-18.06-10.38-.5-17.93,6.49-18.16,16.81-.23,10.55,6.6,17.49,17.26,17.53,9.64.04,16.28-6.51,16.51-16.29Z"/>
      <path class="cls-3" d="M795.8,196.77h-21.66c0-14.12-.79-27.95.19-41.67,1.36-19.05,16.25-31.67,35.95-31.95,20.46-.29,35.72,11.73,37.41,31.21,1.19,13.71.23,27.61.23,42.09h-21.6c0-12.7.43-25.51-.13-38.28-.53-12.17-13.1-19.35-22.65-12.41-4.14,3.01-6.88,10-7.41,15.46-1.11,11.48-.34,23.15-.34,35.54Z"/>
      <path class="cls-5" d="M537.92,124.11h21.77c0,11.96-.32,24.06.09,36.13.46,13.63,11.29,21.43,21.88,15.06,4.29-2.59,7.86-9.37,8.41-14.59,1.24-11.78.39-23.77.39-36.32h21.22c0,14.99,1.2,29.89-.31,44.51-1.81,17.59-19.01,29.75-37.78,28.86-19.42-.92-33.8-14.28-35.43-32.96-.2-2.25-.22-4.51-.23-6.77-.02-10.96,0-21.92,0-33.91Z"/>
      <path class="cls-4" d="M668.09,126.12v20.42h-18.82c-3.41,24,1.22,30.18,23.12,31.4v18.18c-20.08,5.67-42.75-6.77-44.94-27.42-2.16-20.29-.47-40.98-.47-61.96h20.78c.28,6.29.56,12.54.86,19.38h19.47Z"/>
      <path class="cls-11" d="M256.29,158.18c3.07-8.47,5.86-16.18,9.21-25.44,3.29,9.38,6,17.09,8.93,25.44h-18.14Z"/>
      <path class="cls-8" d="M502.35,161.35c-.23,9.78-6.87,16.33-16.51,16.29-10.66-.04-17.49-6.98-17.26-17.53.23-10.32,7.78-17.31,18.16-16.81,10,.48,15.86,7.26,15.61,18.06Z"/>
      <path class="cls-10" d="M681.91,168.75c.08-.8.46-1.35,1.04-1.81,2.68-2.08,5.34-4.18,8.02-6.25.44-.34.61-.64.53-1.23-.31-2.31-.29-4.63.03-6.93.05-.37-.06-.58-.35-.8-2.71-2.1-5.4-4.21-8.1-6.32-1.23-.96-1.42-1.89-.64-3.25,2.7-4.68,5.4-9.35,8.11-14.03.64-1.11,1.62-1.45,2.82-.97,3.22,1.29,6.45,2.59,9.66,3.89.39.16.66.14,1.01-.12,1.92-1.43,3.97-2.65,6.19-3.58.31-.13.43-.31.47-.62.47-3.35.96-6.71,1.42-10.06.12-.88.32-1.7,1.23-2.09.3-.13.65-.2.98-.2,5.53-.01,11.06,0,16.6,0,1.15,0,1.93.63,2.1,1.78.51,3.4,1,6.81,1.46,10.22.08.57.26.88.82,1.12,2.15.89,4.13,2.09,5.98,3.5.28.21.5.23.82.1,3.22-1.3,6.44-2.59,9.67-3.88,1.29-.51,2.26-.18,2.95,1,2.71,4.67,5.41,9.35,8.11,14.03.7,1.21.51,2.24-.59,3.1-2.72,2.13-5.45,4.27-8.18,6.39-.3.24-.4.46-.34.85.32,2.4.32,4.8-.01,7.2-.05.33.05.52.3.72,2.69,2.09,5.37,4.19,8.06,6.29,1.33,1.04,1.52,1.97.69,3.42-2.67,4.61-5.34,9.23-8.01,13.84-.72,1.25-1.63,1.56-2.97,1.02-3.17-1.27-6.35-2.54-9.52-3.83-.4-.16-.69-.16-1.06.12-1.92,1.43-3.98,2.65-6.19,3.58-.28.12-.41.26-.45.57-.44,3.14-.89,6.28-1.35,9.42-.06.44-.12.88-.2,1.32-.19,1-.98,1.66-2,1.66-5.6,0-11.21,0-16.81,0-1.04,0-1.84-.69-1.99-1.73-.51-3.46-1-6.92-1.49-10.38-.07-.48-.22-.76-.71-.97-2.17-.9-4.17-2.1-6.04-3.51-.32-.24-.56-.25-.91-.11-3.14,1.27-6.28,2.53-9.42,3.79-1.54.62-2.44.31-3.26-1.11-2.66-4.6-5.32-9.2-7.96-13.8-.23-.4-.35-.87-.52-1.31ZM737.23,156.13c0-8.03-6.55-14.59-14.6-14.62-7.94-.02-14.53,6.53-14.62,14.38-.09,8.1,6.46,14.64,14.27,14.82,7.85.18,14.9-6.14,14.94-14.59Z"/>
    </g>
  </g>
</svg>